HIERARCHY
ROOT Hips
{
	OFFSET 0.000000 0.956738 0.000000
	CHANNELS 6 Xposition Yposition Zposition Zrotation Yrotation Xrotation 
	JOINT LeftUpLeg
	{
		OFFSET 0.054352 -0.121812 -0.010322
		CHANNELS 3 Zrotation Yrotation Xrotation
		JOINT LeftLeg
		{
			OFFSET 0.055690 -0.370613 0.007578
			CHANNELS 3 Zrotation Yrotation Xrotation
			JOINT LeftFoot
			{
				OFFSET -0.022228 -0.421926 -0.109960
				CHANNELS 3 Zrotation Yrotation Xrotation
				End Site #name: LeftToeBase
				{
					OFFSET 0.044016 -0.040001 0.129941
				}
			}
		}
	}
	JOINT rightUpLeg
	{
		OFFSET -0.066085 -0.126423 -0.009339
		CHANNELS 3 Zrotation Yrotation Xrotation
		JOINT RightLeg
		{
			OFFSET -0.077444 -0.360477 -0.011330
			CHANNELS 3 Zrotation Yrotation Xrotation
			JOINT RightFoot
			{
				OFFSET 0.011959 -0.425344 -0.061614
				CHANNELS 3 Zrotation Yrotation Xrotation
				End Site #name: RightToeBase
				{
					OFFSET -0.023550 -0.045741 0.145412
				}
			}
		}
	}
	JOINT Spine
	{
		OFFSET 0.012275 0.080114 -0.042920
		CHANNELS 3 Zrotation Yrotation Xrotation
		JOINT Spine1
		{
			OFFSET 0.012532 0.157895 0.021250
			CHANNELS 3 Zrotation Yrotation Xrotation
			JOINT Spine2
			{
				OFFSET -0.001246 0.069063 0.003974
				CHANNELS 3 Zrotation Yrotation Xrotation
				JOINT Neck
				{
					OFFSET -0.005591 0.219413 -0.056434
					CHANNELS 3 Zrotation Yrotation Xrotation
					End Site #name: Head
					{
						OFFSET -0.002701 0.062910 0.037230
					}
				}
				JOINT LeftShoulder
				{
					OFFSET 0.075354 0.129619 -0.026932
					CHANNELS 3 Zrotation Yrotation Xrotation
					JOINT LeftArm
					{
						OFFSET 0.129243 -0.041585 -0.012286
						CHANNELS 3 Zrotation Yrotation Xrotation
						JOINT LeftForeArm
						{
							OFFSET 0.039889 -0.281676 -0.003437
							CHANNELS 3 Zrotation Yrotation Xrotation
							End Site #name: LeftHand
							{
								OFFSET 0.024356 -0.205430 0.164959
							}
						}
					}
				}
				JOINT RightShoulder
				{
					OFFSET -0.078434 0.135393 -0.043228
					CHANNELS 3 Zrotation Yrotation Xrotation
					JOINT RightArm
					{
						OFFSET -0.116214 -0.018254 0.000048
						CHANNELS 3 Zrotation Yrotation Xrotation
						JOINT RightForeArm
						{
							OFFSET -0.078028 -0.246625 0.052709
							CHANNELS 3 Zrotation Yrotation Xrotation
							End Site #name: RightHand
							{
								OFFSET 0.037103 -0.131287 0.243188
							}
						}
					}
				}
			}
		}
	}
}
MOTION
Frames: 13
Frame Time: 0.041667
0.043678 0.961132 0.033088 -1.032574 0.451171 0.201696 -0.311797 0.048094 0.355932 -0.565545 0.267510 -2.549247 -0.817741 -1.548366 0.972800 -0.825198 -0.106384 0.637966 0.612146 -0.174434 -3.802251 -0.072088 -1.267436 2.168030 1.378985 -0.328364 1.551861 -3.672141 0.004128 -4.135150 -0.792443 0.691917 -0.210030 6.404963 -3.643935 -4.410497 0.846582 1.928087 0.715708 -0.490321 -0.412804 -2.869100 2.743267 2.554705 4.679094 -33.299283 5.981319 -2.879511 -46.873376 -13.775694 -34.745345 -31.866789 -39.352658 18.471900 
0.044217 0.961116 0.033564 -1.074131 0.431799 0.195720 -0.246951 0.039284 0.290791 -0.547019 0.257235 -2.424153 -0.813269 -1.599610 0.914839 -0.754354 -0.110691 0.646018 0.581059 -0.170093 -3.763236 -0.105361 -1.321408 2.068112 1.439949 -0.332783 1.501620 -3.649027 0.011614 -3.975155 -0.789343 0.691004 -0.269108 6.305305 -3.590459 -4.400820 0.776930 1.914051 0.703164 -0.477623 -0.413760 -2.876816 2.734041 2.536453 4.524626 -33.177108 5.999626 -2.880371 -46.789879 -13.730360 -34.740281 -32.088564 -39.509536 18.640462 
0.044700 0.961185 0.034040 -1.100560 0.417036 0.178454 -0.201359 0.025586 0.195348 -0.502157 0.238653 -2.257712 -0.828773 -1.631002 0.930886 -0.702724 -0.112182 0.643950 0.547644 -0.164665 -3.689207 -0.132503 -1.378573 2.015241 1.486061 -0.339430 1.499541 -3.644558 0.016735 -3.870396 -0.783578 0.685430 -0.304070 6.157864 -3.512484 -4.344729 0.721584 1.915289 0.697272 -0.477068 -0.413588 -2.875686 2.714764 2.511266 4.377386 -33.127112 5.924710 -2.841342 -46.666352 -13.665982 -34.751567 -31.950973 -39.747663 18.171859 
0.045151 0.961305 0.034479 -1.111589 0.410244 0.155168 -0.178520 0.010078 0.090410 -0.457548 0.219029 -2.071297 -0.848176 -1.629661 0.986815 -0.682765 -0.110768 0.633616 0.526200 -0.160655 -3.620078 -0.143289 -1.413605 2.021533 1.505496 -0.347326 1.553334 -3.650596 0.017713 -3.853672 -0.776297 0.678414 -0.301294 5.995735 -3.426098 -4.299218 0.693225 1.924567 0.697083 -0.458377 -0.413678 -2.878031 2.705261 2.498944 4.306545 -33.141019 5.791136 -2.778402 -46.601942 -13.627279 -34.721251 -31.542429 -39.952636 17.324805 
0.045599 0.961401 0.034860 -1.105285 0.409087 0.140870 -0.172416 -0.003494 0.000212 -0.440286 0.207346 -1.915155 -0.872020 -1.627958 1.055576 -0.688290 -0.108306 0.622795 0.518736 -0.158957 -3.583308 -0.143237 -1.433125 2.065407 1.499027 -0.354019 1.635519 -3.671511 0.015547 -3.906878 -0.768509 0.670226 -0.267579 5.861427 -3.353335 -4.304502 0.694606 1.927841 0.698312 -0.416443 -0.411273 -2.865356 2.685826 2.485078 4.313003 -33.178199 5.634496 -2.705821 -46.604985 -13.617144 -34.638142 -30.993698 -40.112337 16.307939 
0.046082 0.961448 0.035175 -1.086380 0.411849 0.137658 -0.172774 -0.012175 -0.056923 -0.456888 0.206254 -1.808500 -0.887344 -1.634601 1.092899 -0.691113 -0.107206 0.618024 0.507901 -0.157730 -3.583179 -0.130713 -1.420868 2.121343 1.476170 -0.359915 1.735712 -3.705447 0.010777 -4.017343 -0.749385 0.662114 -0.218169 5.781563 -3.307696 -4.406481 0.728743 1.904343 0.694498 -0.368529 -0.398675 -2.782813 2.641241 2.451977 4.310696 -33.225242 5.481322 -2.635366 -46.639386 -13.617894 -34.514067 -30.405501 -40.203732 15.297273 
0.046620 0.961443 0.035426 -1.050426 0.418156 0.141405 -0.190447 -0.016069 -0.080106 -0.495514 0.212899 -1.750460 -0.887733 -1.660205 1.071331 -0.702870 -0.109407 0.630668 0.497381 -0.157304 -3.615647 -0.114747 -1.389901 2.158248 1.455599 -0.366498 1.839993 -3.763402 0.005878 -4.139192 -0.719562 0.651304 -0.168740 5.752688 -3.288137 -4.574233 0.773585 1.858738 0.684628 -0.306918 -0.375750 -2.629358 2.560030 2.385594 4.227603 -33.250994 5.293472 -2.546933 -46.668610 -13.616149 -34.392281 -29.789287 -40.258082 14.275072 
0.047211 0.961397 0.035628 -1.007239 0.423951 0.142385 -0.222223 -0.017499 -0.085080 -0.527058 0.219046 -1.717622 -0.873506 -1.692161 1.003016 -0.716144 -0.114772 0.658778 0.471483 -0.155079 -3.644959 -0.098936 -1.346597 2.166520 1.438211 -0.373270 1.941468 -3.831424 0.000608 -4.269839 -0.682713 0.639763 -0.123411 5.769213 -3.293106 -4.738366 0.822218 1.823467 0.678545 -0.253157 -0.349331 -2.449900 2.451099 2.289307 4.028097 -33.255105 5.089060 -2.449280 -46.678247 -13.607184 -34.293059 -29.171909 -40.228931 13.330711 
0.047860 0.961407 0.035808 -0.969980 0.423339 0.141047 -0.254445 -0.018667 -0.088255 -0.548197 0.224230 -1.717948 -0.853037 -1.696778 0.941285 -0.728440 -0.116815 0.670789 0.437671 -0.151195 -3.641583 -0.088379 -1.309794 2.154515 1.436899 -0.380732 2.024124 -3.899043 -0.003501 -4.375057 -0.655840 0.626747 -0.092208 5.830424 -3.324409 -4.799355 0.867361 1.805413 0.677703 -0.202902 -0.328422 -2.307469 2.357099 2.199979 3.784723 -33.231348 4.869671 -2.342981 -46.652124 -13.587084 -34.248725 -28.612038 -40.162447 12.508477 
0.048547 0.961536 0.035995 -0.950429 0.420384 0.136614 -0.280145 -0.021123 -0.100754 -0.552343 0.226320 -1.740749 -0.831186 -1.654392 0.917058 -0.743859 -0.114832 0.664040 0.414378 -0.147642 -3.603083 -0.083073 -1.272892 2.107767 1.434305 -0.385167 2.076258 -3.934222 -0.006431 -4.443998 -0.647434 0.612373 -0.065790 5.915385 -3.370537 -4.773495 0.890543 1.814259 0.683232 -0.168044 -0.317717 -2.234687 2.312455 2.153113 3.617370 -33.168460 4.637023 -2.228502 -46.627624 -13.578305 -34.278301 -28.090006 -40.065537 11.771199 
0.049281 0.961737 0.036203 -0.957905 0.413417 0.142301 -0.282859 -0.026569 -0.136018 -0.539590 0.224843 -1.775416 -0.813489 -1.559374 0.951036 -0.760611 -0.101709 0.603954 0.394897 -0.143246 -3.513001 -0.067474 -1.191885 2.031805 1.429817 -0.385966 2.092323 -3.928970 -0.006602 -4.445385 -0.658124 0.597001 -0.064192 5.997834 -3.416673 -4.698183 0.879012 1.842955 0.691378 -0.123304 -0.315351 -2.220524 2.314193 2.149694 3.559174 -33.060501 4.416588 -2.118024 -46.633964 -13.590955 -34.344061 -27.596993 -40.003580 11.037862 
0.050071 0.961881 0.036454 -0.990740 0.400516 0.154347 -0.264767 -0.035358 -0.196168 -0.517500 0.218949 -1.764794 -0.796061 -1.440342 1.007312 -0.773727 -0.081679 0.509908 0.395385 -0.140505 -3.398396 -0.045572 -1.076034 1.921859 1.441880 -0.386214 2.075011 -3.900041 -0.003537 -4.376130 -0.689560 0.579947 -0.083464 6.068655 -3.456048 -4.646941 0.818693 1.870377 0.693564 -0.040171 -0.314203 -2.216863 2.338153 2.169688 3.584455 -32.920320 4.249605 -2.032003 -46.672342 -13.618994 -34.398383 -27.111878 -39.990302 10.261199 
0.050930 0.961954 0.036746 -1.038082 0.379718 0.160607 -0.233406 -0.041533 -0.241267 -0.490506 0.210808 -1.732261 -0.787164 -1.355021 1.058089 -0.772730 -0.059923 0.405059 0.414584 -0.139680 -3.273526 -0.030541 -0.976933 1.805062 1.494567 -0.390551 2.034773 -3.889627 0.001995 -4.265832 -0.730559 0.565330 -0.108843 6.078799 -3.459354 -4.725226 0.729181 1.896263 0.691900 0.081252 -0.310955 -2.200297 2.340039 2.174494 3.626489 -32.831354 4.168721 -1.989572 -46.746247 -13.656220 -34.384529 -26.742930 -40.057344 9.587818 
